<svg width="185" height="64.99856178829609" viewBox="0 0 185 64.99856178829609" class="css-1j8o68f"><defs id="SvgjsDefs3658"><linearGradient id="SvgjsLinearGradient3663"><stop id="SvgjsStop3664" stop-color="#7f00ff" offset="0"></stop><stop id="SvgjsStop3665" stop-color="#e100ff" offset="1"></stop></linearGradient><linearGradient id="SvgjsLinearGradient3666"><stop id="SvgjsStop3667" stop-color="#7f00ff" offset="0"></stop><stop id="SvgjsStop3668" stop-color="#e100ff" offset="1"></stop></linearGradient></defs><g id="SvgjsG3659" featurekey="2ou6gm-0" transform="matrix(0.7222577929496765,0,0,0.7222577929496765,-3.6129572447169984,-3.61284979211843)" fill="url(#SvgjsLinearGradient3663)"><path xmlns="http://www.w3.org/2000/svg" d="M25.878,50c0,1.296,0.105,2.567,0.302,3.808c3.139-5.576,7.552-11.448,13.216-16.458c5.212-4.61,11.21-8.178,16.895-10.637  c-2.006-0.541-4.114-0.834-6.291-0.834C36.678,25.878,25.878,36.678,25.878,50z"></path><path xmlns="http://www.w3.org/2000/svg" d="M50,74.122c13.322,0,24.122-10.8,24.122-24.122c0-8.149-4.045-15.348-10.232-19.715c-6.139,1.93-13.915,5.719-20.519,11.559  c-6.648,5.879-11.669,13.605-14.437,19.904C33.058,69.128,40.944,74.122,50,74.122z"></path><path xmlns="http://www.w3.org/2000/svg" d="M90.96,31.366C80.686,8.78,53.951-1.235,31.366,9.04S-1.235,46.049,9.04,68.634c3.654,8.031,9.394,14.462,16.284,18.967  l-0.097-0.588c-0.068-0.339-0.132-0.693-0.194-1.055c0,0-0.863-5.331-0.939-8.493c-0.063-2.653,0.427-7.625,0.447-7.858  c0.026-0.29,0.073-0.602,0.122-0.918c0.017-0.109,0.027-0.212,0.047-0.325c0.073-0.415,0.163-0.849,0.272-1.3  c0.003-0.015,0.006-0.029,0.01-0.043c0.115-0.475,0.249-0.968,0.401-1.478c0.553-1.849,1.363-3.922,2.403-6.109  c0.001,0.003,0.002,0.005,0.003,0.008c1.09-2.295,2.443-4.718,4.03-7.146c0.057-0.088,0.114-0.175,0.172-0.263  c1.008-1.525,2.114-3.049,3.306-4.544c0.126-0.158,0.252-0.316,0.38-0.473c0.593-0.729,1.201-1.452,1.836-2.161  c0.023-0.026,0.048-0.051,0.071-0.077c0.601-0.67,1.227-1.324,1.865-1.97c0.168-0.17,0.338-0.34,0.508-0.508  c0.676-0.666,1.365-1.323,2.079-1.955c0.682-0.603,1.383-1.18,2.092-1.744c0.182-0.145,0.366-0.289,0.55-0.431  c0.655-0.508,1.318-1.004,1.989-1.479c0.06-0.042,0.118-0.087,0.177-0.129c0.744-0.522,1.498-1.02,2.255-1.502  c0.156-0.099,0.312-0.196,0.468-0.293c0.709-0.442,1.421-0.871,2.134-1.277c0.05-0.029,0.101-0.06,0.151-0.088  c0.801-0.453,1.604-0.883,2.403-1.291c0.075-0.038,0.15-0.075,0.226-0.113c0.792-0.4,1.582-0.782,2.365-1.137c0,0,0,0,0.001,0  c1.659-0.753,3.286-1.404,4.847-1.952l-0.001-0.001c2.291-0.804,4.444-1.393,6.337-1.744c1.042-0.194,2.01-0.32,2.882-0.376  c0.088-0.005,0.167-0.004,0.253-0.008c0.34-0.017,0.674-0.029,0.981-0.023c0.396,0.01,0.769,0.035,1.106,0.082  c0.89,0.127,1.523,0.396,1.739,0.739c0.062,0.099,0.103,0.212,0.13,0.333c0.009,0.04,0.01,0.086,0.015,0.129  c0.011,0.086,0.017,0.174,0.013,0.269c-0.002,0.056-0.009,0.114-0.017,0.173c-0.012,0.092-0.029,0.189-0.053,0.288  c-0.016,0.066-0.031,0.132-0.052,0.201c-0.031,0.105-0.072,0.217-0.115,0.329c-0.027,0.07-0.049,0.138-0.081,0.211  c-0.069,0.161-0.149,0.33-0.239,0.504c-0.044,0.085-0.094,0.175-0.143,0.263c-0.077,0.141-0.156,0.282-0.245,0.43  c-0.057,0.095-0.121,0.194-0.183,0.291c-0.266,0.42-0.565,0.859-0.91,1.325c0.415,0.541,0.811,1.097,1.187,1.667  c0.285-0.384,0.547-0.757,0.792-1.121c0.001,0.002,0.002,0.003,0.003,0.005c0.265-0.394,0.498-0.773,0.714-1.143  c0.044-0.076,0.081-0.148,0.123-0.224c0.148-0.264,0.286-0.524,0.407-0.775c0.048-0.1,0.089-0.197,0.133-0.295  c0.097-0.218,0.185-0.433,0.26-0.64c0.038-0.106,0.072-0.209,0.103-0.312c0.059-0.191,0.107-0.377,0.145-0.559  c0.022-0.102,0.043-0.205,0.057-0.304c0.026-0.174,0.036-0.342,0.04-0.506c0.002-0.092,0.009-0.187,0.004-0.276  c-0.009-0.169-0.039-0.328-0.073-0.486c-0.016-0.072-0.022-0.148-0.043-0.218c-0.067-0.221-0.157-0.431-0.281-0.626  c-0.553-0.876-1.612-1.432-3.147-1.651c-0.331-0.047-0.699-0.072-1.084-0.087c-0.087-0.003-0.173-0.007-0.263-0.009  c-0.371-0.006-0.763,0.001-1.177,0.023c-0.124,0.007-0.253,0.018-0.381,0.027c-0.334,0.025-0.679,0.058-1.036,0.1  c-0.178,0.021-0.355,0.042-0.539,0.067c-0.382,0.053-0.776,0.117-1.18,0.19c-0.224,0.04-0.449,0.082-0.68,0.128  c-0.44,0.088-0.887,0.183-1.348,0.292c-3.335,0.788-7.217,2.149-11.229,4.086c-0.018,0.009-0.037,0.018-0.055,0.027  c-1.521,0.736-3.059,1.554-4.594,2.458c-0.076,0.045-0.151,0.091-0.227,0.136c-0.658,0.391-1.314,0.799-1.968,1.221  c-0.12,0.078-0.24,0.153-0.36,0.232c-0.714,0.468-1.424,0.952-2.129,1.458c-0.091,0.065-0.181,0.135-0.272,0.201  c-0.599,0.435-1.193,0.886-1.782,1.349c-0.177,0.139-0.353,0.278-0.529,0.419c-0.671,0.541-1.337,1.093-1.99,1.67  c-0.693,0.613-1.362,1.245-2.017,1.885c-0.193,0.189-0.381,0.38-0.571,0.57c-0.479,0.481-0.948,0.967-1.406,1.46  c-0.176,0.189-0.353,0.377-0.526,0.568c-1.223,1.349-2.367,2.731-3.431,4.13c-0.12,0.158-0.235,0.316-0.353,0.474  c-0.426,0.571-0.839,1.143-1.238,1.717c-0.11,0.159-0.222,0.317-0.33,0.476c-0.98,1.435-1.877,2.87-2.688,4.287  c-0.077,0.134-0.149,0.267-0.224,0.401c-0.321,0.57-0.628,1.136-0.921,1.698c-0.05,0.096-0.108,0.195-0.158,0.291  c0.001,0.003,0.002,0.005,0.003,0.008c-1.562,3.037-2.722,5.924-3.445,8.423c-0.052,0.18-0.101,0.356-0.148,0.532  c-0.105,0.388-0.201,0.765-0.284,1.132c-0.065,0.282-0.124,0.559-0.176,0.828c-0.033,0.175-0.067,0.35-0.095,0.519  c-0.067,0.403-0.118,0.787-0.154,1.154c-0.008,0.085-0.013,0.167-0.019,0.25c-0.001,0.001-0.001,0.001-0.002,0.002  c-0.35,2.607-0.505,5.239-0.443,7.861c0.045,1.877,0.208,3.758,0.468,5.625c-4.881-4.025-8.95-9.178-11.741-15.313  C0.992,46.221,10.572,20.649,32.176,10.82c21.604-9.828,47.175-0.248,57.004,21.355c9.828,21.604,0.248,47.175-21.355,57.004  c-12.732,5.792-26.84,4.838-38.294-1.34c0.304,0.887,0.608,1.775,0.913,2.662c11.624,5.601,25.556,6.207,38.192,0.459  C91.22,80.685,101.235,53.951,90.96,31.366z"></path></g><g id="SvgjsG3660" featurekey="kZnDdN-0" transform="matrix(1.2312238216400146,0,0,1.2312238216400146,84.13814297515196,16.90815052658039)" fill="url(#SvgjsLinearGradient3666)"><path d="M5.5 5.76 c2.18 0 3.78 1.44 4.38 2.94 l-1.26 0.68 c-0.64 -1.28 -1.66 -2.12 -3.12 -2.12 c-1.54 0 -2.6 0.88 -2.6 2.1 c0 1.14 0.72 1.86 2.24 2.44 l1.02 0.38 c2.52 0.94 4.1 2.02 4.1 4.24 c0 2.4 -2.3 3.88 -4.68 3.88 s-4.34 -1.44 -4.88 -3.44 l1.34 -0.64 c0.48 1.48 1.74 2.56 3.54 2.56 c1.6 0 2.96 -0.92 2.96 -2.34 c0 -1.6 -1.12 -2.2 -2.78 -2.84 l-1.04 -0.4 c-2.12 -0.8 -3.48 -1.9 -3.48 -3.88 c0 -2.04 1.8 -3.56 4.26 -3.56 z M19.020000000000003 5.800000000000001 c3.64 0 7.16 2.96 7.16 7.2 s-3.52 7.2 -7.16 7.2 c-3.66 0 -7.16 -2.96 -7.16 -7.2 s3.5 -7.2 7.16 -7.2 z M19.020000000000003 18.62 c2.74 0 5.44 -2.32 5.44 -5.62 s-2.7 -5.62 -5.44 -5.62 c-2.76 0 -5.44 2.32 -5.44 5.62 s2.68 5.62 5.44 5.62 z M39.84 18.5 c-1.28 1.1 -2.9 1.7 -4.7 1.7 c-3.64 0 -7.16 -2.96 -7.16 -7.2 s3.52 -7.2 7.16 -7.2 c1.78 0 3.38 0.6 4.64 1.66 l-1.02 1.16 c-0.98 -0.78 -2.24 -1.24 -3.5 -1.24 c-2.86 0 -5.56 2.32 -5.56 5.62 s2.7 5.62 5.56 5.62 c1.28 0 2.56 -0.48 3.54 -1.28 z M43.400000000000006 6 l0 14 l-1.66 0 l0 -14 l1.66 0 z M57.120000000000005 20 l-1.44 -3.3 l-7.48 0 l-1.44 3.3 l-1.76 0 l6.24 -14 l1.38 0 l6.26 14 l-1.76 0 z M48.82000000000001 15.3 l6.24 0 l-3.12 -7.12 z M62.14000000000001 18.44 l6.28 0 l0 1.56 l-7.94 0 l0 -14 l1.66 0 l0 12.44 z M81.92000000000002 20 l-1.98 0 l-4.02 -5.76 l-4.02 5.76 l-1.98 0 l5 -7.18 l-4.76 -6.82 l1.98 0 l3.76 5.4 l3.76 -5.4 l1.98 0 l-4.74 6.82 z"></path></g></svg>